<?xml version="1.0" encoding="utf-8"?>
<!-- Generator: Adobe Illustrator 19.0.0, SVG Export Plug-In . SVG Version: 6.00 Build 0)  -->
<svg version="1.1" xmlns="http://www.w3.org/2000/svg" xmlns:xlink="http://www.w3.org/1999/xlink" x="0px" y="0px"
	 viewBox="0 0 2000 440.9" style="enable-background:new 0 0 2000 440.9;" xml:space="preserve">
<style type="text/css">
	.st0{fill:#232320;}
	.st1{display:none;}
	.st2{display:inline;}
</style>
<g id="Layer_1">
	<g id="XMLID_31_">
		<path id="XMLID_32_" class="st0" d="M435.7,237.3H245.5c2.7,16.8,10.1,30.1,22,40c11.9,9.9,27.1,14.9,45.6,14.9
			c22.1,0,41.1-7.7,57-23.2l49.9,23.4c-12.4,17.6-27.3,30.7-44.7,39.1s-37.9,12.7-61.8,12.7c-37,0-67.1-11.7-90.4-35
			c-23.3-23.3-34.9-52.6-34.9-87.7c0-36,11.6-65.9,34.8-89.6c23.2-23.8,52.3-35.7,87.3-35.7c37.1,0,67.3,11.9,90.6,35.7
			c23.3,23.8,34.9,55.2,34.9,94.2L435.7,237.3z M376.5,190.7c-3.9-13.1-11.6-23.8-23.1-32.1c-11.5-8.2-24.9-12.4-40.1-12.4
			c-16.5,0-31,4.6-43.4,13.9c-7.8,5.8-15.1,16-21.7,30.6H376.5z"/>
		<path id="XMLID_35_" class="st0" d="M483.6,102.3h59.2v24.2c13.4-11.3,25.6-19.2,36.5-23.6c10.9-4.4,22-6.6,33.4-6.6
			c23.4,0,43.2,8.2,59.5,24.5c13.7,13.9,20.6,34.4,20.6,61.6v155.9h-58.5V234.9c0-28.1-1.3-46.8-3.8-56.1
			c-2.5-9.2-6.9-16.3-13.2-21.1c-6.3-4.8-14-7.3-23.2-7.3c-12,0-22.2,4-30.8,12c-8.6,8-14.5,19.1-17.8,33.2
			c-1.7,7.4-2.6,23.3-2.6,47.9v94.6h-59.2V102.3z"/>
		<path id="XMLID_37_" class="st0" d="M773.1,5.1c10.4,0,19.3,3.8,26.7,11.3c7.4,7.5,11.1,16.6,11.1,27.3c0,10.6-3.7,19.5-11,27
			c-7.4,7.4-16.1,11.2-26.4,11.2c-10.5,0-19.5-3.8-26.9-11.4s-11.1-16.8-11.1-27.6c0-10.4,3.7-19.3,11-26.7
			C753.9,8.8,762.7,5.1,773.1,5.1z M743.5,102.3h59.2v235.9h-59.2V102.3z"/>
		<path id="XMLID_40_" class="st0" d="M1030.8,102.3h59v202.1c0,39.9-8,69.2-24.1,88c-21.5,25.4-54,38.2-97.3,38.2
			c-23.1,0-42.6-2.9-58.3-8.7c-15.8-5.8-29.1-14.3-39.9-25.5c-10.8-11.2-18.9-24.8-24.1-40.9h65.3c5.8,6.6,13.2,11.7,22.3,15.1
			c9.1,3.4,19.9,5.1,32.3,5.1c15.9,0,28.7-2.5,38.4-7.4c9.7-4.9,16.5-11.3,20.5-19.1c4-7.8,6-21.2,6-40.3
			c-10.4,10.4-21.3,17.9-32.7,22.4c-11.4,4.6-24.4,6.8-38.8,6.8c-31.7,0-58.4-11.4-80.2-34.3c-21.8-22.8-32.7-51.7-32.7-86.7
			c0-37.4,11.6-67.5,34.7-90.2c21-20.5,46-30.8,75-30.8c13.6,0,26.4,2.5,38.5,7.5c12.1,5,24.2,13.2,36.3,24.6V102.3z M969.4,151.5
			c-18.6,0-34,6.3-46.2,18.8c-12.1,12.5-18.2,28.2-18.2,47.2c0,19.7,6.2,35.8,18.6,48.3c12.4,12.6,28,18.9,46.8,18.9
			c18.4,0,33.5-6.1,45.4-18.4c11.9-12.3,17.9-28.4,17.9-48.3c0-19.7-6-35.6-18-47.9C1003.8,157.6,988.4,151.5,969.4,151.5z"/>
		<path id="XMLID_43_" class="st0" d="M1149.1,102.3h59.2v27.1c10.1-11.1,21.4-19.4,33.7-24.9c12.4-5.5,25.9-8.2,40.5-8.2
			c14.7,0,28.1,3.6,39.9,10.8c11.9,7.2,21.4,17.8,28.6,31.7c9.4-13.9,20.9-24.4,34.6-31.7c13.7-7.2,28.6-10.8,44.8-10.8
			c16.8,0,31.5,3.9,44.3,11.7c12.7,7.8,21.9,18,27.4,30.6s8.4,33,8.4,61.4v138.3h-59.6V218.5c0-26.7-3.3-44.8-10-54.3
			c-6.6-9.5-16.6-14.2-29.9-14.2c-10.1,0-19.2,2.9-27.2,8.7c-8,5.8-14,13.8-17.9,24s-5.9,26.6-5.9,49.1v106.4h-59.6V223.9
			c0-21.1-1.6-36.4-4.7-45.9c-3.1-9.5-7.8-16.5-14-21.1c-6.2-4.6-13.8-6.9-22.6-6.9c-9.9,0-18.8,2.9-26.8,8.8
			c-8,5.9-14.1,14.1-18,24.6c-4,10.6-6,27.2-6,49.9v104.9h-59.2V102.3z"/>
		<path id="XMLID_45_" class="st0" d="M1741,102.3h59.2v235.9H1741v-24.9c-11.6,11-23.1,18.9-34.8,23.7c-11.6,4.8-24.2,7.3-37.8,7.3
			c-30.5,0-56.8-11.8-79-35.4c-22.2-23.6-33.3-53-33.3-88.1c0-36.4,10.8-66.3,32.3-89.5c21.5-23.3,47.6-34.9,78.4-34.9
			c14.1,0,27.4,2.7,39.8,8c12.4,5.3,23.9,13.4,34.4,24.1V102.3z M1678.8,150.8c-18.3,0-33.5,6.5-45.6,19.4
			c-12.1,12.9-18.2,29.5-18.2,49.8c0,20.4,6.2,37.1,18.5,50.3c12.3,13.2,27.5,19.7,45.5,19.7c18.6,0,34-6.5,46.2-19.4
			c12.2-12.9,18.4-29.9,18.4-50.8c0-20.5-6.1-37.1-18.4-49.9C1713,157.2,1697.5,150.8,1678.8,150.8z"/>
	</g>
</g>
<g id="Layer_1_copy" class="st1">
	<g id="XMLID_1_" class="st2">
		<path id="XMLID_2_" class="st0" d="M733.2,237.3H543.1c2.7,16.8,10.1,30.1,22,40c11.9,9.9,27.1,14.9,45.6,14.9
			c22.1,0,41.1-7.7,57-23.2l49.9,23.4c-12.4,17.6-27.3,30.7-44.7,39.1s-37.9,12.7-61.8,12.7c-37,0-67.1-11.7-90.4-35
			c-23.3-23.3-34.9-52.6-34.9-87.7c0-36,11.6-65.9,34.8-89.6c23.2-23.8,52.3-35.7,87.3-35.7c37.1,0,67.3,11.9,90.6,35.7
			c23.3,23.8,34.9,55.2,34.9,94.2L733.2,237.3z M674,190.7c-3.9-13.1-11.6-23.8-23.1-32.1c-11.5-8.2-24.9-12.4-40.1-12.4
			c-16.5,0-31,4.6-43.4,13.9c-7.8,5.8-15.1,16-21.7,30.6H674z"/>
		<path id="XMLID_50_" class="st0" d="M804.2,5.1c10.4,0,19.3,3.8,26.7,11.3c7.4,7.5,11.1,16.6,11.1,27.3c0,10.6-3.7,19.5-11,27
			c-7.4,7.4-16.1,11.2-26.4,11.2c-10.5,0-19.5-3.8-26.9-11.4s-11.1-16.8-11.1-27.6c0-10.4,3.7-19.3,11-26.7
			C785,8.8,793.8,5.1,804.2,5.1z M774.6,102.3h59.2v235.9h-59.2V102.3z"/>
		<path id="XMLID_53_" class="st0" d="M885.8,102.3H945v243.7c0,22.4-2.2,39.1-6.6,50.2c-4.4,11.1-11.4,19.5-20.9,25.5
			c-9.5,5.9-21,8.9-34.5,8.9c-11.9,0-26.6-3-44.2-8.9V375c9.3,4.5,17.4,6.7,24.5,6.7c7.5,0,13.1-2.2,16.9-6.7
			c3.8-4.5,5.6-12.7,5.6-24.7V102.3z M915.3,5.1c10.5,0,19.5,3.8,27,11.2c7.4,7.5,11.2,16.6,11.2,27.2c0,10.5-3.7,19.5-11.1,27
			c-7.4,7.5-16.2,11.2-26.4,11.2c-10.6,0-19.5-3.8-27-11.5c-7.4-7.6-11.2-16.9-11.2-27.7c0-10.4,3.6-19.2,10.9-26.6
			C896.1,8.8,904.9,5.1,915.3,5.1z"/>
		<path id="XMLID_56_" class="st0" d="M1177,102.3h59.2v235.9H1177v-24.9c-11.6,11-23.1,18.9-34.8,23.7c-11.6,4.8-24.2,7.3-37.8,7.3
			c-30.5,0-56.8-11.8-79-35.4c-22.2-23.6-33.3-53-33.3-88.1c0-36.4,10.8-66.3,32.3-89.5c21.5-23.3,47.6-34.9,78.4-34.9
			c14.1,0,27.4,2.7,39.8,8c12.4,5.3,23.9,13.4,34.4,24.1V102.3z M1114.8,150.8c-18.3,0-33.5,6.5-45.6,19.4
			c-12.1,12.9-18.2,29.5-18.2,49.8c0,20.4,6.2,37.1,18.5,50.3c12.3,13.2,27.5,19.7,45.5,19.7c18.6,0,34-6.5,46.2-19.4
			c12.2-12.9,18.4-29.9,18.4-50.8c0-20.5-6.1-37.1-18.4-49.9C1149,157.2,1133.5,150.8,1114.8,150.8z"/>
		<path id="XMLID_59_" class="st0" d="M1296.2,11.2h58.8v114.9c11.6-10,23.2-17.5,34.9-22.4s23.6-7.5,35.6-7.5
			c23.4,0,43.1,8.1,59.2,24.3c13.7,14,20.6,34.6,20.6,61.8v155.9h-58.3V234.7c0-27.3-1.3-45.8-3.9-55.5c-2.6-9.7-7-16.9-13.3-21.7
			s-14.1-7.2-23.3-7.2c-12,0-22.3,4-30.9,11.9c-8.6,8-14.6,18.8-17.9,32.5c-1.7,7.1-2.6,23.3-2.6,48.6v94.7h-58.8V11.2z"/>
	</g>
</g>
</svg>
