<?xml version="1.0" encoding="utf-8"?>
<!-- Generator: Adobe Illustrator 19.0.0, SVG Export Plug-In . SVG Version: 6.00 Build 0)  -->
<svg version="1.1" id="Layer_1" xmlns="http://www.w3.org/2000/svg" xmlns:xlink="http://www.w3.org/1999/xlink" x="0px" y="0px"
	 viewBox="118.4 0 763.1 881.6" style="enable-background:new 118.4 0 763.1 881.6;" xml:space="preserve">
<style type="text/css">
	.st0{display:none;}
	.st1{display:inline;fill:#FFFFFF;}
	.st2{display:inline;fill:#184376;}
	.st3{display:inline;}
	.st4{fill:#232323;}
	.st5{fill:#232320;}
	.st6{display:inline;fill:none;}
	.st7{fill:#0972B2;}
	.st8{display:none;fill:#184376;}
	.st9{fill:#373737;}
	.st10{display:none;fill:#232323;}
	.st11{display:inline;fill:#59BC75;}
	.st12{fill:none;}
	.st13{display:inline;fill:#164476;}
	.st14{display:inline;fill:#232323;}
	.st15{fill:#59BC75;}
</style>
<g id="Layer_4" class="st0">
	<rect id="XMLID_7_" x="214.4" y="55.8" class="st1" width="571.6" height="1000"/>
	<rect id="XMLID_4_" x="1097" y="321" class="st2" width="315" height="155"/>
	<rect id="XMLID_5_" x="1102" y="541" class="st3" width="114" height="191.6"/>
	<g id="XMLID_6_" class="st3">
		<rect id="XMLID_2_" x="1097" y="190.6" class="st4" width="315" height="93.4"/>
	</g>
</g>
<g id="Layer_2" class="st0">
	<g id="XMLID_65_" class="st3">
		<path id="XMLID_66_" class="st5" d="M335.4,857.1H281c0.8,4.8,2.9,8.6,6.3,11.4c3.4,2.8,7.8,4.2,13.1,4.2c6.3,0,11.8-2.2,16.3-6.6
			l14.3,6.7c-3.6,5-7.8,8.8-12.8,11.2s-10.9,3.6-17.7,3.6c-10.6,0-19.2-3.3-25.9-10c-6.7-6.7-10-15-10-25.1c0-10.3,3.3-18.8,10-25.6
			c6.6-6.8,15-10.2,25-10.2c10.6,0,19.3,3.4,25.9,10.2c6.7,6.8,10,15.8,10,26.9L335.4,857.1z M318.5,843.8c-1.1-3.8-3.3-6.8-6.6-9.2
			s-7.1-3.5-11.5-3.5c-4.7,0-8.9,1.3-12.4,4c-2.2,1.7-4.3,4.6-6.2,8.7H318.5z"/>
		<path id="XMLID_69_" class="st5" d="M349.1,818.5H366v6.9c3.8-3.2,7.3-5.5,10.4-6.8s6.3-1.9,9.6-1.9c6.7,0,12.4,2.3,17,7
			c3.9,4,5.9,9.8,5.9,17.6V886h-16.7v-29.5c0-8.1-0.4-13.4-1.1-16s-2-4.7-3.8-6s-4-2.1-6.6-2.1c-3.4,0-6.4,1.1-8.8,3.4
			c-2.5,2.3-4.2,5.5-5.1,9.5c-0.5,2.1-0.7,6.7-0.7,13.7v27h-16.9L349.1,818.5L349.1,818.5z"/>
		<path id="XMLID_71_" class="st5" d="M431.9,790.7c3,0,5.5,1.1,7.6,3.2c2.1,2.2,3.2,4.8,3.2,7.8s-1.1,5.6-3.2,7.7
			c-2.1,2.1-4.6,3.2-7.5,3.2c-3,0-5.6-1.1-7.7-3.3s-3.2-4.8-3.2-7.9c0-3,1.1-5.5,3.2-7.6C426.4,791.8,428.9,790.7,431.9,790.7z
			 M423.4,818.5h16.9V886h-16.9V818.5z"/>
		<path id="XMLID_74_" class="st5" d="M505.6,818.5h16.9v57.8c0,11.4-2.3,19.8-6.9,25.2c-6.2,7.3-15.4,10.9-27.8,10.9
			c-6.6,0-12.2-0.8-16.7-2.5s-8.3-4.1-11.4-7.3s-5.4-7.1-6.9-11.7h18.7c1.7,1.9,3.8,3.3,6.4,4.3s5.7,1.5,9.2,1.5
			c4.5,0,8.2-0.7,11-2.1c2.8-1.4,4.7-3.2,5.9-5.5c1.1-2.2,1.7-6.1,1.7-11.5c-3,3-6.1,5.1-9.4,6.4c-3.3,1.3-7,2-11.1,2
			c-9.1,0-16.7-3.3-22.9-9.8c-6.2-6.5-9.4-14.8-9.4-24.8c0-10.7,3.3-19.3,9.9-25.8c6-5.9,13.1-8.8,21.5-8.8c3.9,0,7.6,0.7,11,2.1
			c3.5,1.4,6.9,3.8,10.4,7v-7.4H505.6z M488.1,832.6c-5.3,0-9.7,1.8-13.2,5.4c-3.5,3.6-5.2,8.1-5.2,13.5c0,5.6,1.8,10.2,5.3,13.8
			c3.6,3.6,8,5.4,13.4,5.4c5.2,0,9.6-1.8,13-5.3s5.1-8.1,5.1-13.8c0-5.6-1.7-10.2-5.1-13.7C497.9,834.3,493.5,832.6,488.1,832.6z"/>
		<path id="XMLID_77_" class="st5" d="M539.5,818.5h16.9v7.8c2.9-3.2,6.1-5.6,9.6-7.1c3.5-1.6,7.4-2.4,11.6-2.4c4.2,0,8,1,11.4,3.1
			s6.1,5.1,8.2,9.1c2.7-4,6-7,9.9-9.1s8.2-3.1,12.8-3.1c4.8,0,9,1.1,12.7,3.3c3.6,2.2,6.3,5.1,7.9,8.7c1.6,3.6,2.4,9.4,2.4,17.5V886
			h-17.1v-34.2c0-7.6-1-12.8-2.9-15.5s-4.8-4.1-8.6-4.1c-2.9,0-5.5,0.8-7.8,2.5s-4,3.9-5.1,6.9c-1.1,2.9-1.7,7.6-1.7,14V886h-17.1
			v-32.7c0-6-0.4-10.4-1.3-13.1c-0.9-2.7-2.2-4.7-4-6s-3.9-2-6.5-2c-2.8,0-5.4,0.8-7.7,2.5s-4,4-5.2,7c-1.1,3-1.7,7.8-1.7,14.3v30
			h-16.9v-67.5H539.5z"/>
		<path id="XMLID_79_" class="st5" d="M708.8,818.5h16.9V886h-16.9v-7.1c-3.3,3.1-6.6,5.4-9.9,6.8c-3.3,1.4-6.9,2.1-10.8,2.1
			c-8.7,0-16.2-3.4-22.6-10.1c-6.4-6.8-9.5-15.2-9.5-25.2c0-10.4,3.1-19,9.2-25.6c6.2-6.7,13.6-10,22.4-10c4,0,7.8,0.8,11.4,2.3
			s6.8,3.8,9.8,6.9L708.8,818.5L708.8,818.5z M691,832.4c-5.2,0-9.6,1.9-13,5.5c-3.5,3.7-5.2,8.4-5.2,14.2s1.8,10.6,5.3,14.4
			c3.5,3.8,7.9,5.6,13,5.6c5.3,0,9.7-1.8,13.2-5.5s5.3-8.5,5.3-14.5c0-5.9-1.8-10.6-5.3-14.3C700.8,834.2,696.3,832.4,691,832.4z"/>
	</g>
	<line id="XMLID_12_" class="st6" x1="588.8" y1="486.1" x2="588.8" y2="396.4"/>
</g>
<g id="Layer_1_1_">
	<polygon id="XMLID_35_" class="st7" points="725.7,168 679,106.4 373.4,106.2 440.1,194.1 725.7,194.3 	"/>
	<rect id="XMLID_64_" x="-188" y="120" class="st8" width="43" height="69"/>
	<polyline id="XMLID_34_" class="st7" points="370.1,780 679,780 725.7,718.5 725.7,692.1 439.4,692.1 	"/>
	<polyline id="XMLID_33_" class="st9" points="419.4,692.1 588.8,485.9 588.8,396.4 431.6,208.6 431.6,208.6 431.6,208.6 
		420.2,194.1 354,106.2 264.3,106.2 264.3,165.2 488.9,441.4 264.3,721 264.3,780 350.1,780 	"/>
	<path id="XMLID_47_" class="st10" d="M611.3,466.9c2.4-13,4.4-26.1,4.4-39.4c0-5-1.2-11.4,0.7-16.3h-14v59l6.7,8.2
		C609.9,474.6,610.6,470.8,611.3,466.9z"/>
	<g id="XMLID_31_" class="st0">
		<polygon id="XMLID_32_" class="st11" points="705.8,692.7 705.8,780.5 332.9,780.5 402.3,692.7 		"/>
	</g>
	<line id="XMLID_28_" class="st12" x1="602.3" y1="411.5" x2="602.3" y2="470.5"/>
</g>
<g id="Layer_1_copy_4" class="st0">
	<polygon id="XMLID_62_" class="st13" points="338.2,802.4 330.8,792.5 281.8,792.5 292.5,806.6 338.2,806.6 	"/>
	<polyline id="XMLID_61_" class="st13" points="281.3,900.5 330.8,900.5 338.2,890.6 338.2,886.4 292.4,886.4 	"/>
	<polyline id="XMLID_60_" class="st14" points="289.2,886.4 318.3,850.9 318.3,841.4 291.1,808.9 291.1,808.9 291.1,808.9 
		289.3,806.6 278.7,792.5 264.3,792.5 264.3,802 300.3,846.2 264.3,891 264.3,900.5 278.1,900.5 	"/>
	<path id="XMLID_59_" class="st14" d="M319.9,850.3c0.4-2.1,0.7-4.2,0.7-6.3c0-0.8-0.2-1.8,0.1-2.6h-2.2v9.5l1.1,1.3
		C319.7,851.5,319.8,850.9,319.9,850.3z"/>
	<g id="XMLID_57_" class="st3">
		<polygon id="XMLID_58_" class="st15" points="335.1,886.5 335.1,900.5 275.3,900.5 286.4,886.5 		"/>
	</g>
	<line id="XMLID_51_" class="st6" x1="318.5" y1="841.4" x2="318.5" y2="850.9"/>
</g>
<g id="Layer_1_copy_3" class="st0">
	<polygon id="XMLID_44_" class="st2" points="341.5,806.6 330.8,792.5 281.8,792.5 292.5,806.6 	"/>
	<polyline id="XMLID_43_" class="st2" points="281.3,900.5 330.8,900.5 341.5,886.4 292.4,886.4 	"/>
	<polyline id="XMLID_42_" class="st14" points="289.2,886.4 318.3,850.9 318.3,841.4 291.1,808.9 291.1,808.9 291.1,808.9 
		289.3,806.6 278.7,792.5 264.3,792.5 264.3,802 300.3,846.2 264.3,891 264.3,900.5 278.1,900.5 	"/>
	<path id="XMLID_41_" class="st14" d="M319.9,850.3c0.4-2.1,0.7-4.2,0.7-6.3c0-0.8-0.2-1.8,0.1-2.6h-2.2v9.5l1.1,1.3
		C319.7,851.5,319.8,850.9,319.9,850.3z"/>
	<g id="XMLID_39_" class="st3">
		<polygon id="XMLID_40_" class="st15" points="335.1,886.5 335.1,900.5 275.3,900.5 286.4,886.5 		"/>
	</g>
	<line id="XMLID_10_" class="st6" x1="318.5" y1="841.4" x2="318.5" y2="850.9"/>
</g>
<g id="Layer_1_copy_2">
</g>
<g id="Layer_1_copy" class="st0">
	<polygon id="XMLID_24_" class="st11" points="333.1,812.7 333.1,799.6 277.4,799.5 287.4,812.7 	"/>
	<polyline id="XMLID_23_" class="st11" points="276.9,900.3 333.1,900.3 333.1,887.2 287.3,887.2 	"/>
	<polyline id="XMLID_22_" class="st14" points="287.3,887.2 314.5,852.4 314.5,847 289.1,814.8 289.1,814.8 289.1,814.8 
		287.4,812.7 277.5,799.5 264.1,799.5 264.1,808.4 297.7,849.7 264.1,891.5 264.1,900.3 276.9,900.3 	"/>
	<g id="XMLID_20_" class="st3">
		<polygon id="XMLID_21_" class="st15" points="313.3,887.7 313.3,900.8 257.5,900.8 267.9,887.7 		"/>
	</g>
</g>
</svg>
