<?xml version="1.0" encoding="utf-8"?>
<!-- Generator: Adobe Illustrator 17.0.0, SVG Export Plug-In . SVG Version: 6.00 Build 0)  -->
<!DOCTYPE svg PUBLIC "-//W3C//DTD SVG 1.1//EN" "http://www.w3.org/Graphics/SVG/1.1/DTD/svg11.dtd">
<svg version="1.1" xmlns="http://www.w3.org/2000/svg" xmlns:xlink="http://www.w3.org/1999/xlink" x="0px" y="0px" width="480px"
	 height="480px" viewBox="0 0 480 480" style="enable-background:new 0 0 480 480;" xml:space="preserve">
<style type="text/css">
	.st0{fill-rule:evenodd;clip-rule:evenodd;}
	.st1{display:none;}
	.st2{display:inline;fill:#FFFFFF;}
	.st3{display:inline;fill:#4CBB81;}
	.st4{display:inline;fill:none;stroke:#000000;}
</style>
<g id="Layer_1">
	<g>
		<path class="st0" d="M240,0C107.5,0,0,107.5,0,240s107.5,240,240,240c132.5,0,240-107.5,240-240S372.5,0,240,0z M240,457.1
			c-120.4,0-218-97.6-218-218c0-76.6,39.5-143.9,99.3-182.8c-18.9,25-30.2,56.1-30.2,89.8c0,82.2,66.7,148.9,148.9,148.9
			c82.2,0,148.9-66.7,148.9-148.9c0-33.8-11.2-64.9-30.2-89.8C418.5,95.2,458,162.6,458,239.2C458,359.5,360.4,457.1,240,457.1z"/>
		<path class="st0" d="M74.9,232.6c-10.5,45,6.9,101.2,27,130.6c31.9,8.6,66.8,14.3,108.1,13.5c0-13.5,0-27,0-40.5
			C147.6,319,100.4,286.7,74.9,232.6L74.9,232.6z"/>
		<path class="st0" d="M405.1,232.6c10.5,45-6.9,101.2-27,130.6c-31.9,8.6-66.8,14.3-108.1,13.5c0-13.5,0-27,0-40.5
			C332.4,319,379.6,286.7,405.1,232.6L405.1,232.6z"/>
	</g>
</g>
<g id="Layer_3" class="st1">
	<path class="st2" d="M193.7,196.3c-0.5-0.6-1.1-1-1.8-1.3c-0.6-0.3-1.3-0.4-2.1-0.4c-1.6,0-3,0.6-4.1,1.8c-1.1,1.2-1.7,2.8-1.7,4.7
		c0,1.8,0.6,3.4,1.7,4.6c1.2,1.2,2.5,1.8,4.1,1.8c0.7,0,1.4-0.1,2-0.4c0.6-0.3,1.2-0.7,1.8-1.2v1.3h3.1v-17h-3.1V196.3z
		 M192.9,198.5c0.6,0.7,1,1.5,1,2.6c0,1.1-0.3,2-1,2.6s-1.4,1-2.4,1c-0.9,0-1.7-0.3-2.4-1c-0.6-0.7-1-1.6-1-2.6
		c0-1.1,0.3-1.9,0.9-2.6c0.6-0.7,1.4-1,2.4-1C191.4,197.5,192.2,197.8,192.9,198.5 M210.6,201.4c0-2-0.6-3.7-1.8-4.9
		c-1.2-1.2-2.8-1.9-4.7-1.9c-1.8,0-3.3,0.6-4.5,1.9c-1.2,1.2-1.8,2.8-1.8,4.7c0,1.8,0.6,3.4,1.8,4.6c1.2,1.2,2.8,1.8,4.7,1.8
		c1.2,0,2.3-0.2,3.2-0.7c0.9-0.4,1.7-1.1,2.3-2l-2.6-1.2c-0.8,0.8-1.8,1.2-3,1.2c-1,0-1.7-0.3-2.4-0.8c-0.6-0.5-1-1.2-1.1-2.1h9.9
		L210.6,201.4z M200.8,199.6c0.3-0.8,0.7-1.3,1.1-1.6c0.6-0.5,1.4-0.7,2.3-0.7c0.8,0,1.5,0.2,2.1,0.6c0.6,0.4,1,1,1.2,1.7H200.8z
		 M211.4,207.2h3.1v-5.5c0-1.2,0.1-2,0.3-2.6c0.2-0.5,0.5-1,0.9-1.3c0.4-0.3,0.9-0.5,1.4-0.5c0.5,0,0.8,0.1,1.2,0.4
		c0.3,0.2,0.6,0.6,0.7,1.1c0.2,0.5,0.2,1.3,0.2,2.4v5.9h3.1v-5.5c0-1.2,0.1-2,0.3-2.6c0.2-0.5,0.5-0.9,0.9-1.2
		c0.4-0.3,0.9-0.5,1.4-0.5c0.7,0,1.2,0.2,1.6,0.7c0.3,0.5,0.5,1.4,0.5,2.8v6.2h3.1V200c0-1.5-0.1-2.5-0.4-3.2
		c-0.3-0.7-0.8-1.2-1.4-1.6c-0.7-0.4-1.4-0.6-2.3-0.6c-0.8,0-1.6,0.2-2.3,0.6c-0.7,0.4-1.3,0.9-1.8,1.6c-0.4-0.7-0.9-1.3-1.5-1.6
		c-0.6-0.4-1.3-0.6-2.1-0.6c-0.8,0-1.5,0.1-2.1,0.4c-0.6,0.3-1.2,0.7-1.8,1.3v-1.4h-3.1V207.2z M233,196.3c-1.4,1.3-2.1,2.9-2.1,4.8
		c0,1.8,0.6,3.3,1.9,4.6c1.2,1.3,2.7,1.9,4.5,1.9c1.2,0,2.3-0.3,3.3-0.9c1-0.6,1.8-1.4,2.3-2.4c0.6-1,0.9-2.1,0.9-3.3
		c0-1.2-0.3-2.2-0.9-3.2c-0.6-1-1.4-1.8-2.4-2.4s-2.1-0.9-3.3-0.9C235.7,194.6,234.2,195.2,233,196.3 M239.7,198.5
		c0.6,0.7,0.9,1.5,0.9,2.6s-0.3,1.9-1,2.6c-0.6,0.7-1.4,1-2.4,1c-1,0-1.8-0.3-2.4-1c-0.6-0.7-0.9-1.5-0.9-2.6c0-1,0.3-1.9,1-2.6
		c0.6-0.7,1.4-1,2.4-1C238.3,197.5,239.1,197.9,239.7,198.5 M244.7,207.2h3.1v-4.9c0-1.3,0-2.1,0.1-2.5c0.2-0.7,0.5-1.3,0.9-1.7
		c0.4-0.4,1-0.6,1.6-0.6c0.5,0,0.9,0.1,1.2,0.4s0.6,0.6,0.7,1.1c0.1,0.5,0.2,1.5,0.2,2.9v5.4h3v-8.1c0-1.4-0.4-2.5-1.1-3.2
		c-0.8-0.9-1.9-1.3-3.1-1.3c-0.6,0-1.2,0.1-1.7,0.3c-0.6,0.2-1.2,0.6-1.9,1.2v-1.3h-3.1V207.2z"/>
	<path class="st3" d="M262.6,195.2c-0.7-0.3-1.4-0.5-2.2-0.5c-1.2,0-2.1,0.3-2.9,1c-0.7,0.7-1.1,1.5-1.1,2.5c0,1.5,1,2.8,3,3.8
		l1,0.5c0.9,0.5,1.3,0.9,1.3,1.4c0,0.3-0.1,0.5-0.4,0.7c-0.2,0.2-0.6,0.3-1,0.3c-0.4,0-0.8-0.1-1.3-0.4c-0.5-0.3-0.9-0.6-1.3-1
		l-1.9,2.1c1.1,1.4,2.5,2.1,4.3,2.1c1.3,0,2.4-0.4,3.2-1.1c0.8-0.7,1.2-1.6,1.2-2.7c0-0.8-0.2-1.5-0.7-2.1c-0.4-0.6-1.3-1.2-2.4-1.8
		l-1.1-0.6c-0.5-0.2-0.8-0.4-0.9-0.6c-0.1-0.1-0.2-0.3-0.2-0.5c0-0.2,0.1-0.4,0.3-0.5c0.2-0.1,0.5-0.2,0.8-0.2
		c0.6,0,1.3,0.4,2.1,1.2l1.9-1.9C263.9,196,263.3,195.5,262.6,195.2 M274.4,196.3c-0.5-0.6-1.1-1-1.8-1.3c-0.6-0.3-1.3-0.4-2.1-0.4
		c-1.6,0-3,0.6-4.1,1.8c-1.1,1.2-1.7,2.8-1.7,4.7c0,1.8,0.6,3.4,1.7,4.6c1.2,1.2,2.5,1.8,4.1,1.8c0.7,0,1.4-0.1,2-0.4
		c0.6-0.3,1.2-0.7,1.8-1.2v1.3h3.1v-12.3h-3.1V196.3z M273.6,198.5c0.6,0.7,1,1.5,1,2.6c0,1.1-0.3,2-1,2.6c-0.6,0.7-1.4,1-2.4,1
		c-0.9,0-1.7-0.3-2.4-1c-0.6-0.7-1-1.6-1-2.6c0-1.1,0.3-1.9,0.9-2.6c0.6-0.7,1.4-1,2.4-1C272.1,197.5,273,197.8,273.6,198.5"/>
	<polygon class="st3" points="282,207.2 284,207.2 286.7,200.2 289.3,207.2 291.2,207.2 295.7,194.9 292.7,194.9 290.2,201.9 
		287.6,194.9 285.8,194.9 283.1,201.9 280.6,194.9 277.6,194.9 	"/>
</g>
<g id="Layer_2" class="st1">
	<circle id="CUT_LINE" class="st4" cx="240" cy="240" r="108"/>
</g>
<g id="Layer_5" class="st1">
	<circle id="CUT_LINE_1_" class="st4" cx="240" cy="240" r="99"/>
</g>
</svg>
