<?xml version="1.0" encoding="utf-8"?>
<!-- Generator: Adobe Illustrator 17.0.0, SVG Export Plug-In . SVG Version: 6.00 Build 0)  -->
<!DOCTYPE svg PUBLIC "-//W3C//DTD SVG 1.1//EN" "http://www.w3.org/Graphics/SVG/1.1/DTD/svg11.dtd">
<svg version="1.1" xmlns="http://www.w3.org/2000/svg" xmlns:xlink="http://www.w3.org/1999/xlink" x="0px" y="0px" width="480px"
	 height="480px" viewBox="0 0 480 480" style="enable-background:new 0 0 480 480;" xml:space="preserve">
<style type="text/css">
	.st0{fill-rule:evenodd;clip-rule:evenodd;fill:#232323;}
	.st1{fill-rule:evenodd;clip-rule:evenodd;fill:#0C9BDC;}
	.st2{fill:#FFFFFF;}
	.st3{fill:#0C9BDC;}
	.st4{display:none;}
</style>
<g id="Layer_1">
	<g>
		<path class="st0" d="M480,240c0,132.5-107.5,240-240,240S0,372.5,0,240S107.5,0,240,0S480,107.5,480,240L480,240z"/>
		<path class="st1" d="M358.7,56.3c18.9,25,30.2,56.1,30.2,89.8c0,82.2-66.7,148.9-148.9,148.9S91.1,228.4,91.1,146.2
			c0-33.8,11.2-64.9,30.2-89.8C61.5,95.2,22,162.6,22,239.2c0,120.4,97.6,218,218,218c120.4,0,218-97.6,218-218
			C458,162.6,418.5,95.2,358.7,56.3L358.7,56.3z"/>
		<path class="st0" d="M74.9,232.6c-10.5,45,6.9,101.2,27,130.6c31.9,8.6,66.8,14.3,108.1,13.5c0-13.5,0-27,0-40.5
			C147.6,319,100.4,286.7,74.9,232.6L74.9,232.6z"/>
		<path class="st0" d="M405.1,232.6c10.5,45-6.9,101.2-27,130.6c-31.9,8.6-66.8,14.3-108.1,13.5c0-13.5,0-27,0-40.5
			C332.4,319,379.6,286.7,405.1,232.6L405.1,232.6z"/>
	</g>
</g>
<g id="Layer_3">
	<g>
		<g>
			<g>
				<path class="st2" d="M133.8,142.7c-1.3-1.3-2.6-2.2-4.1-2.9c-1.5-0.6-3.1-1-4.7-1c-3.7,0-6.8,1.4-9.3,4.2
					c-2.6,2.8-3.8,6.3-3.8,10.7c0,4.2,1.3,7.7,4,10.5c2.6,2.8,5.8,4.2,9.4,4.2c1.6,0,3.1-0.3,4.5-0.9c1.4-0.6,2.8-1.5,4.1-2.8v3h7
					v-39h-7V142.7z M131.9,147.7c1.5,1.5,2.2,3.5,2.2,6c0,2.5-0.7,4.5-2.2,6.1c-1.5,1.5-3.3,2.3-5.5,2.3c-2.1,0-3.9-0.8-5.4-2.4
					c-1.5-1.6-2.2-3.6-2.2-6c0-2.4,0.7-4.4,2.2-5.9c1.4-1.5,3.2-2.3,5.4-2.3C128.6,145.4,130.4,146.2,131.9,147.7 M172.5,154.4
					c0-4.7-1.4-8.4-4.2-11.2s-6.4-4.3-10.8-4.3c-4.2,0-7.6,1.4-10.4,4.3c-2.8,2.8-4.1,6.4-4.1,10.7c0,4.2,1.4,7.7,4.2,10.5
					c2.8,2.8,6.4,4.2,10.8,4.2c2.8,0,5.3-0.5,7.4-1.5c2.1-1,3.8-2.6,5.3-4.7l-5.9-2.8c-1.9,1.8-4.2,2.8-6.8,2.8
					c-2.2,0-4-0.6-5.4-1.8c-1.4-1.2-2.3-2.8-2.6-4.8h22.6L172.5,154.4z M150.1,150.2c0.8-1.7,1.7-3,2.6-3.7c1.5-1.1,3.2-1.7,5.2-1.7
					c1.8,0,3.4,0.5,4.8,1.5c1.4,1,2.3,2.3,2.8,3.8H150.1z M174.4,167.8h7v-12.5c0-2.7,0.2-4.7,0.7-6s1.2-2.2,2.1-2.9
					c1-0.7,2-1,3.2-1c1.1,0,1.9,0.3,2.7,0.8c0.7,0.6,1.3,1.4,1.7,2.5c0.4,1.1,0.6,3,0.6,5.5v13.6h7.1v-12.7c0-2.7,0.2-4.6,0.7-5.9
					c0.5-1.2,1.2-2.2,2.1-2.9c1-0.7,2-1,3.2-1c1.6,0,2.8,0.6,3.6,1.7c0.8,1.1,1.2,3.3,1.2,6.5v14.3h7.1v-16.5c0-3.4-0.3-5.8-1-7.3
					c-0.7-1.5-1.8-2.7-3.3-3.7c-1.5-0.9-3.3-1.4-5.3-1.4c-1.9,0-3.7,0.4-5.3,1.3c-1.6,0.9-3,2.1-4.1,3.8c-0.9-1.7-2-2.9-3.4-3.8
					c-1.4-0.9-3-1.3-4.8-1.3c-1.7,0-3.3,0.3-4.8,1c-1.5,0.7-2.8,1.6-4,3v-3.2h-7V167.8z M224,142.7c-3.2,2.9-4.8,6.6-4.8,11
					c0,4.1,1.4,7.6,4.3,10.5c2.8,2.9,6.3,4.3,10.3,4.3c2.7,0,5.2-0.7,7.5-2c2.3-1.3,4.1-3.1,5.4-5.4c1.3-2.3,2-4.8,2-7.5
					c0-2.6-0.7-5.1-2-7.4c-1.3-2.3-3.1-4.1-5.5-5.4c-2.3-1.3-4.8-2-7.5-2C230,138.9,226.8,140.2,224,142.7 M239.3,147.8
					c1.4,1.5,2.2,3.5,2.2,5.9s-0.7,4.4-2.2,5.9c-1.5,1.5-3.3,2.3-5.5,2.3c-2.2,0-4-0.8-5.5-2.3c-1.4-1.5-2.2-3.5-2.2-6
					c0-2.4,0.7-4.3,2.2-5.9c1.5-1.5,3.3-2.3,5.5-2.3C236.1,145.5,237.9,146.3,239.3,147.8 M250.7,167.8h7v-11.3
					c0-2.9,0.1-4.8,0.3-5.7c0.4-1.7,1.1-3,2.1-4c1-1,2.2-1.4,3.7-1.4c1.1,0,2,0.3,2.8,0.9s1.3,1.4,1.6,2.5c0.3,1.1,0.5,3.3,0.5,6.7
					v12.3h7v-18.6c0-3.2-0.8-5.7-2.4-7.4c-1.9-2-4.3-2.9-7.1-2.9c-1.4,0-2.7,0.3-4,0.8c-1.3,0.5-2.7,1.5-4.3,2.8v-2.9h-7V167.8z"/>
				<path class="st3" d="M291.8,140.1c-1.6-0.8-3.3-1.2-5.1-1.2c-2.7,0-4.9,0.8-6.6,2.4c-1.7,1.6-2.6,3.5-2.6,5.7
					c0,3.5,2.3,6.3,6.8,8.6l2.4,1.2c2,1,3.1,2.1,3.1,3.2c0,0.6-0.3,1.1-0.9,1.6c-0.6,0.4-1.3,0.7-2.2,0.7c-0.9,0-1.8-0.3-3-0.9
					c-1.1-0.6-2.1-1.4-2.9-2.3l-4.3,4.7c2.4,3.2,5.7,4.8,9.8,4.8c3.1,0,5.5-0.8,7.4-2.5c1.8-1.7,2.7-3.8,2.7-6.3
					c0-1.9-0.5-3.5-1.5-4.9c-1-1.4-2.9-2.8-5.6-4.1l-2.6-1.3c-1.1-0.6-1.8-1-2.1-1.3c-0.3-0.3-0.4-0.7-0.4-1c0-0.5,0.2-0.9,0.7-1.3
					c0.4-0.3,1.1-0.5,1.9-0.5c1.4,0,3.1,0.9,4.8,2.6l4.4-4.4C294.7,142,293.4,140.9,291.8,140.1 M318.9,142.7
					c-1.3-1.3-2.6-2.2-4.1-2.9c-1.5-0.6-3.1-1-4.7-1c-3.7,0-6.8,1.4-9.3,4.2c-2.6,2.8-3.8,6.3-3.8,10.7c0,4.2,1.3,7.7,4,10.5
					c2.6,2.8,5.8,4.2,9.4,4.2c1.6,0,3.1-0.3,4.5-0.9c1.4-0.6,2.8-1.5,4.1-2.8v3h7v-28.2h-7V142.7z M317.1,147.7
					c1.5,1.5,2.2,3.5,2.2,6c0,2.5-0.7,4.5-2.2,6.1s-3.3,2.3-5.5,2.3c-2.1,0-3.9-0.8-5.4-2.4c-1.5-1.6-2.2-3.6-2.2-6
					c0-2.4,0.7-4.4,2.2-5.9c1.4-1.5,3.2-2.3,5.4-2.3C313.8,145.4,315.6,146.2,317.1,147.7"/>
				<polygon class="st3" points="336.5,167.8 340.9,167.8 347.1,151.7 353,167.8 357.5,167.8 367.8,139.6 360.8,139.6 355.2,155.4 
					349.2,139.6 345,139.6 338.9,155.6 333.3,139.6 326.4,139.6 				"/>
			</g>
		</g>
	</g>
</g>
<g id="Layer_2" class="st4">
</g>
</svg>
