<?xml version="1.0" encoding="utf-8"?>
<!-- Generator: Adobe Illustrator 17.0.0, SVG Export Plug-In . SVG Version: 6.00 Build 0)  -->
<!DOCTYPE svg PUBLIC "-//W3C//DTD SVG 1.1//EN" "http://www.w3.org/Graphics/SVG/1.1/DTD/svg11.dtd">
<svg version="1.1" id="Layer_1" xmlns="http://www.w3.org/2000/svg" xmlns:xlink="http://www.w3.org/1999/xlink" x="0px" y="0px"
	 width="448px" height="70px" viewBox="0 0 448 70" style="enable-background:new 0 0 448 70;" xml:space="preserve">
<style type="text/css">
	.st0{fill:#232323;}
	.st1{fill:#0C9BDC;}
</style>
<path class="st0" d="M38.5,24.6c-2.2-2.2-4.6-3.9-7.2-5.1c-2.6-1.1-5.4-1.7-8.3-1.7c-6.4,0-11.9,2.4-16.3,7.3C2.2,30.1,0,36.4,0,44
	c0,7.4,2.3,13.6,6.9,18.5c4.6,5,10.1,7.5,16.5,7.5c2.8,0,5.5-0.5,7.9-1.5c2.4-1,4.8-2.7,7.2-5v5.2h12.3V0H38.5V24.6L38.5,24.6z
	 M35.2,33.4c2.6,2.7,3.8,6.2,3.8,10.5c0,4.4-1.3,8-3.8,10.7c-2.6,2.7-5.8,4.1-9.6,4.1c-3.8,0-6.9-1.4-9.5-4.1
	c-2.6-2.8-3.8-6.3-3.8-10.6c0-4.3,1.3-7.7,3.8-10.5c2.5-2.7,5.7-4.1,9.5-4.1C29.5,29.3,32.7,30.7,35.2,33.4L35.2,33.4z M106.2,45.2
	c0-8.2-2.4-14.8-7.3-19.8c-4.8-5-11.1-7.5-18.9-7.5c-7.3,0-13.3,2.5-18.2,7.5c-4.8,5-7.2,11.3-7.2,18.8c0,7.4,2.4,13.5,7.3,18.4
	C66.8,67.5,73,70,80.7,70c5,0,9.3-0.9,12.9-2.7c3.6-1.8,6.7-4.5,9.3-8.2l-10.4-4.9c-3.3,3.3-7.3,4.9-11.9,4.9c-3.9,0-7-1-9.5-3.1
	c-2.5-2.1-4-4.9-4.6-8.4h39.6L106.2,45.2L106.2,45.2z M67.1,37.7c1.4-3.1,2.9-5.2,4.5-6.4c2.6-1.9,5.6-2.9,9-2.9
	c3.2,0,5.9,0.9,8.3,2.6c2.4,1.7,4,4,4.8,6.7H67.1L67.1,37.7z M109.7,68.7H122V46.7c0-4.8,0.4-8.3,1.2-10.5c0.8-2.2,2.1-3.9,3.8-5.2
	c1.7-1.2,3.5-1.8,5.6-1.8c1.8,0,3.4,0.5,4.7,1.5c1.3,1,2.3,2.5,2.9,4.4c0.6,2,1,5.2,1,9.6v24h12.4V46.3c0-4.7,0.4-8.2,1.2-10.3
	c0.8-2.1,2.1-3.8,3.7-5c1.7-1.2,3.6-1.8,5.7-1.8c2.8,0,4.8,1,6.2,3c1.4,2,2.1,5.8,2.1,11.4v25.2H185V39.6c0-6-0.6-10.3-1.7-12.9
	c-1.2-2.6-3.1-4.8-5.7-6.4c-2.7-1.6-5.7-2.5-9.2-2.5c-3.4,0-6.5,0.8-9.3,2.3c-2.8,1.5-5.3,3.7-7.2,6.7c-1.5-2.9-3.5-5.1-6-6.7
	c-2.5-1.5-5.2-2.3-8.3-2.3c-3,0-5.9,0.6-8.4,1.7c-2.6,1.2-4.9,2.9-7,5.2v-5.7h-12.3V68.7L109.7,68.7z M196.4,24.6
	c-5.6,5.2-8.4,11.6-8.4,19.4c0,7.2,2.5,13.4,7.5,18.4c5,5.1,11,7.6,18,7.6c4.8,0,9.2-1.1,13.1-3.4c4-2.3,7.1-5.5,9.4-9.5
	c2.3-4.1,3.5-8.4,3.5-13.1c0-4.6-1.1-9-3.4-13c-2.3-4-5.5-7.2-9.6-9.5c-4.1-2.3-8.4-3.5-13.1-3.5C207,17.9,201.3,20.1,196.4,24.6
	L196.4,24.6L196.4,24.6z M223.3,33.6c2.5,2.7,3.8,6.1,3.8,10.4c0,4.3-1.3,7.7-3.8,10.4c-2.6,2.7-5.8,4.1-9.6,4.1
	c-3.9,0-7.1-1.3-9.6-4c-2.5-2.7-3.8-6.2-3.8-10.5c0-4.2,1.3-7.6,3.8-10.3c2.5-2.7,5.7-4,9.6-4C217.5,29.6,220.8,30.9,223.3,33.6
	L223.3,33.6z M243.2,68.7h12.3V48.8c0-5.2,0.2-8.5,0.5-10.1c0.7-3,1.9-5.3,3.7-7c1.8-1.7,3.9-2.5,6.4-2.5c1.9,0,3.5,0.5,4.8,1.5
	c1.3,1,2.2,2.5,2.7,4.4c0.5,1.9,0.8,5.9,0.8,11.8v21.7h12.2V36c0-5.7-1.4-10-4.3-12.9c-3.4-3.4-7.5-5.1-12.4-5.1
	c-2.4,0-4.7,0.5-7,1.4c-2.3,0.9-4.8,2.6-7.6,5v-5.1h-12.3V68.7L243.2,68.7z"/>
<path class="st1" d="M315,20c-2.8-1.4-5.8-2.1-9-2.1c-4.7,0-8.5,1.4-11.5,4.2c-3,2.8-4.5,6.1-4.5,10c0,6.1,4,11.1,11.9,15.2l4.2,2.1
	c3.6,1.8,5.4,3.7,5.4,5.6c0,1-0.5,1.9-1.5,2.7c-1,0.8-2.3,1.2-3.9,1.2c-1.5,0-3.2-0.5-5.2-1.6c-1.9-1-3.6-2.4-5.1-4.1l-7.6,8.3
	c4.3,5.7,10,8.5,17.2,8.5c5.4,0,9.7-1.5,12.9-4.4c3.2-2.9,4.8-6.6,4.8-11c0-3.3-0.9-6.2-2.7-8.7c-1.8-2.5-5-4.9-9.8-7.2l-4.5-2.3
	c-2-1-3.2-1.7-3.7-2.3c-0.5-0.6-0.7-1.2-0.7-1.8c0-0.9,0.4-1.6,1.2-2.2c0.8-0.6,1.9-0.9,3.3-0.9c2.5,0,5.3,1.5,8.4,4.6l7.6-7.7
	C320.2,23.4,317.8,21.4,315,20L315,20z M362.6,24.6c-2.2-2.2-4.6-3.9-7.2-5.1c-2.6-1.1-5.4-1.7-8.3-1.7c-6.4,0-11.9,2.4-16.3,7.3
	c-4.5,4.9-6.7,11.2-6.7,18.8c0,7.4,2.3,13.6,6.9,18.5c4.6,5,10.1,7.5,16.5,7.5c2.8,0,5.5-0.5,7.9-1.5c2.4-1,4.8-2.7,7.2-5v5.2h12.3
	V19.1h-12.3V24.6L362.6,24.6z M359.3,33.4c2.6,2.7,3.8,6.2,3.8,10.5c0,4.4-1.3,8-3.8,10.7c-2.6,2.7-5.8,4.1-9.6,4.1
	c-3.8,0-6.9-1.4-9.5-4.1c-2.6-2.8-3.8-6.3-3.8-10.6c0-4.3,1.3-7.7,3.8-10.5c2.5-2.7,5.7-4.1,9.5-4.1
	C353.5,29.3,356.7,30.7,359.3,33.4L359.3,33.4z"/>
<polygon class="st1" points="393.3,68.7 401,68.7 411.8,40.5 422.3,68.7 430.1,68.7 448,19.1 435.9,19.1 426,47 415.5,19.1 
	408.1,19.1 397.5,47.4 387.6,19.1 375.6,19.1 393.3,68.7 "/>
</svg>
